<?xml version="1.0" encoding="utf-8" standalone="no"?>
<!DOCTYPE svg PUBLIC "-//W3C//DTD SVG 1.1//EN"
  "http://www.w3.org/Graphics/SVG/1.1/DTD/svg11.dtd">
<svg xmlns:xlink="http://www.w3.org/1999/xlink" width="469.19952pt" height="353.99952pt" viewBox="0 0 469.19952 353.99952" xmlns="http://www.w3.org/2000/svg" version="1.1">
 <metadata>
  <rdf:RDF xmlns:dc="http://purl.org/dc/elements/1.1/" xmlns:cc="http://creativecommons.org/ns#" xmlns:rdf="http://www.w3.org/1999/02/22-rdf-syntax-ns#">
   <cc:Work>
    <dc:type rdf:resource="http://purl.org/dc/dcmitype/StillImage"/>
    <dc:date>2024-09-20T16:02:38.579800</dc:date>
    <dc:format>image/svg+xml</dc:format>
    <dc:creator>
     <cc:Agent>
      <dc:title>Matplotlib v3.8.4, https://matplotlib.org/</dc:title>
     </cc:Agent>
    </dc:creator>
   </cc:Work>
  </rdf:RDF>
 </metadata>
 <defs>
  <style type="text/css">*{stroke-linejoin: round; stroke-linecap: butt}</style>
 </defs>
 <g id="figure_1">
  <g id="patch_1">
   <path d="M 0 353.99952 
L 469.19952 353.99952 
L 469.19952 0 
L 0 0 
z
" style="fill: #ffffff"/>
  </g>
  <g id="axes_1">
   <g id="patch_2">
    <path d="M 69.838979 291.357661 
L 389.75952 291.357661 
L 389.75952 14.958281 
L 69.838979 14.958281 
z
" style="fill: #ffffff"/>
   </g>
   <g id="matplotlib.axis_1">
    <g id="xtick_1">
     <g id="line2d_1">
      <defs>
       <path id="m19b7c5cc12" d="M 0 0 
L 0 3.5 
" style="stroke: #5a5758; stroke-width: 0.8"/>
      </defs>
      <g>
       <use xlink:href="#m19b7c5cc12" x="69.838979" y="303.357661" style="fill: #5a5758; stroke: #5a5758; stroke-width: 0.8"/>
      </g>
     </g>
     <g id="text_1">
      <!-- -10 -->
      <g style="fill: #5a5758" transform="translate(59.343179 320.778491) scale(0.14994 -0.14994)">
       <defs>
        <path id="CMUBright-Roman-2d" d="M 70 1350 
L 70 1670 
L 1862 1670 
L 1862 1350 
L 70 1350 
z
" transform="scale(0.015625)"/>
        <path id="CMUBright-Roman-31" d="M 672 3558 
L 672 3885 
Q 1427 3885 1862 4301 
L 1965 4301 
L 1965 320 
L 2803 320 
L 2803 0 
L 710 0 
L 710 320 
L 1549 320 
L 1549 3744 
Q 1178 3558 672 3558 
z
" transform="scale(0.015625)"/>
        <path id="CMUBright-Roman-30" d="M 333 1984 
L 333 2086 
Q 333 2291 339 2438 
Q 346 2586 371 2832 
Q 397 3078 461 3267 
Q 525 3456 621 3657 
Q 717 3859 880 4006 
Q 1043 4154 1261 4230 
Q 1446 4301 1677 4301 
Q 1856 4301 2025 4256 
Q 2195 4211 2380 4070 
Q 2566 3930 2704 3709 
Q 2842 3488 2931 3104 
Q 3021 2720 3021 2214 
Q 3021 1683 2982 1347 
Q 2944 1011 2803 685 
Q 2618 250 2307 70 
Q 1997 -109 1677 -109 
Q 1498 -109 1328 -64 
Q 1158 -19 972 121 
Q 787 262 649 483 
Q 512 704 422 1091 
Q 333 1478 333 1984 
z
M 742 2413 
Q 742 2374 745 2326 
Q 749 2278 749 2272 
L 749 2150 
Q 749 1779 758 1548 
Q 768 1318 838 1014 
Q 909 710 1037 538 
Q 1286 218 1677 218 
Q 2086 218 2330 557 
Q 2451 730 2518 1037 
Q 2586 1344 2595 1568 
Q 2605 1792 2605 2163 
L 2605 2272 
Q 2605 2278 2608 2323 
Q 2611 2368 2611 2406 
Q 2611 3302 2336 3661 
Q 2099 3981 1677 3981 
Q 1242 3981 1005 3642 
Q 742 3264 742 2413 
z
" transform="scale(0.015625)"/>
       </defs>
       <use xlink:href="#CMUBright-Roman-2d"/>
       <use xlink:href="#CMUBright-Roman-31" x="34.999985"/>
       <use xlink:href="#CMUBright-Roman-30" x="87.499969"/>
      </g>
     </g>
    </g>
    <g id="xtick_2">
     <g id="line2d_2">
      <g>
       <use xlink:href="#m19b7c5cc12" x="123.159069" y="303.357661" style="fill: #5a5758; stroke: #5a5758; stroke-width: 0.8"/>
      </g>
     </g>
     <g id="text_2">
      <!-- -5 -->
      <g style="fill: #5a5758" transform="translate(116.599194 320.778491) scale(0.14994 -0.14994)">
       <defs>
        <path id="CMUBright-Roman-35" d="M 301 518 
L 486 819 
Q 896 224 1581 224 
Q 1971 224 2268 473 
Q 2566 723 2566 1312 
Q 2566 1626 2489 1846 
Q 2413 2067 2285 2176 
Q 2157 2285 2032 2329 
Q 1907 2374 1773 2374 
Q 1210 2374 941 1901 
L 582 1901 
L 582 4192 
L 2797 4192 
L 2797 3853 
L 973 3853 
L 973 2381 
Q 1325 2701 1779 2701 
Q 2285 2701 2653 2291 
Q 3021 1882 3021 1306 
Q 3021 723 2601 307 
Q 2182 -109 1574 -109 
Q 813 -109 301 518 
z
" transform="scale(0.015625)"/>
       </defs>
       <use xlink:href="#CMUBright-Roman-2d"/>
       <use xlink:href="#CMUBright-Roman-35" x="34.999985"/>
      </g>
     </g>
    </g>
    <g id="xtick_3">
     <g id="line2d_3">
      <g>
       <use xlink:href="#m19b7c5cc12" x="176.479159" y="303.357661" style="fill: #5a5758; stroke: #5a5758; stroke-width: 0.8"/>
      </g>
     </g>
     <g id="text_3">
      <!-- 0 -->
      <g style="fill: #5a5758" transform="translate(172.543234 320.778491) scale(0.14994 -0.14994)">
       <use xlink:href="#CMUBright-Roman-30"/>
      </g>
     </g>
    </g>
    <g id="xtick_4">
     <g id="line2d_4">
      <g>
       <use xlink:href="#m19b7c5cc12" x="229.79925" y="303.357661" style="fill: #5a5758; stroke: #5a5758; stroke-width: 0.8"/>
      </g>
     </g>
     <g id="text_4">
      <!-- 5 -->
      <g style="fill: #5a5758" transform="translate(225.863325 320.778491) scale(0.14994 -0.14994)">
       <use xlink:href="#CMUBright-Roman-35"/>
      </g>
     </g>
    </g>
    <g id="xtick_5">
     <g id="line2d_5">
      <g>
       <use xlink:href="#m19b7c5cc12" x="283.11934" y="303.357661" style="fill: #5a5758; stroke: #5a5758; stroke-width: 0.8"/>
      </g>
     </g>
     <g id="text_5">
      <!-- 10 -->
      <g style="fill: #5a5758" transform="translate(275.24749 320.778491) scale(0.14994 -0.14994)">
       <use xlink:href="#CMUBright-Roman-31"/>
       <use xlink:href="#CMUBright-Roman-30" x="52.499985"/>
      </g>
     </g>
    </g>
    <g id="xtick_6">
     <g id="line2d_6">
      <g>
       <use xlink:href="#m19b7c5cc12" x="336.43943" y="303.357661" style="fill: #5a5758; stroke: #5a5758; stroke-width: 0.8"/>
      </g>
     </g>
     <g id="text_6">
      <!-- 15 -->
      <g style="fill: #5a5758" transform="translate(328.56758 320.778491) scale(0.14994 -0.14994)">
       <use xlink:href="#CMUBright-Roman-31"/>
       <use xlink:href="#CMUBright-Roman-35" x="52.499985"/>
      </g>
     </g>
    </g>
    <g id="xtick_7">
     <g id="line2d_7">
      <g>
       <use xlink:href="#m19b7c5cc12" x="389.75952" y="303.357661" style="fill: #5a5758; stroke: #5a5758; stroke-width: 0.8"/>
      </g>
     </g>
     <g id="text_7">
      <!-- 20 -->
      <g style="fill: #5a5758" transform="translate(381.88767 320.778491) scale(0.14994 -0.14994)">
       <defs>
        <path id="CMUBright-Roman-32" d="M 275 3226 
Q 595 4301 1587 4301 
L 1594 4301 
Q 2214 4294 2617 3923 
Q 3021 3552 3021 2989 
Q 3021 2746 2937 2531 
Q 2854 2317 2668 2115 
Q 2483 1914 2384 1821 
Q 2285 1728 2061 1549 
Q 1754 1299 1642 1203 
Q 1530 1107 698 358 
L 3021 358 
L 3021 0 
L 333 0 
L 333 339 
L 1683 1562 
Q 2144 1965 2368 2278 
Q 2592 2592 2592 2982 
Q 2592 3418 2278 3690 
Q 1965 3962 1498 3962 
Q 1069 3962 854 3693 
Q 640 3424 512 2938 
L 275 3226 
z
" transform="scale(0.015625)"/>
       </defs>
       <use xlink:href="#CMUBright-Roman-32"/>
       <use xlink:href="#CMUBright-Roman-30" x="52.499985"/>
      </g>
     </g>
    </g>
    <g id="text_8">
     <!-- t -->
     <g style="fill: #5a5758" transform="translate(226.387687 343.792957) scale(0.18 -0.18)">
      <defs>
       <path id="CMUBright-SemiBold-74" d="M 122 2541 
L 122 3021 
L 646 3021 
L 646 3885 
L 1222 3885 
L 1222 3021 
L 2118 3021 
L 2118 2541 
L 1222 2541 
L 1222 1075 
Q 1222 448 1555 448 
Q 1805 448 2106 672 
L 2234 211 
Q 1754 -51 1197 -51 
Q 634 -51 634 1005 
L 634 2541 
L 122 2541 
z
" transform="scale(0.015625)"/>
      </defs>
      <use xlink:href="#CMUBright-SemiBold-74"/>
     </g>
    </g>
   </g>
   <g id="matplotlib.axis_2">
    <g id="ytick_1">
     <g id="line2d_8">
      <defs>
       <path id="m6cacf2490b" d="M 0 0 
L -3.5 0 
" style="stroke: #5a5758; stroke-width: 0.8"/>
      </defs>
      <g>
       <use xlink:href="#m6cacf2490b" x="57.838979" y="254.502738" style="fill: #5a5758; stroke: #5a5758; stroke-width: 0.8"/>
      </g>
     </g>
     <g id="text_9">
      <!-- 0.2 -->
      <g style="fill: #5a5758" transform="translate(30.716563 259.713153) scale(0.14994 -0.14994)">
       <defs>
        <path id="CMUBright-Roman-2e" d="M 678 0 
L 678 499 
L 1178 499 
L 1178 0 
L 678 0 
z
" transform="scale(0.015625)"/>
       </defs>
       <use xlink:href="#CMUBright-Roman-30"/>
       <use xlink:href="#CMUBright-Roman-2e" x="52.499985"/>
       <use xlink:href="#CMUBright-Roman-32" x="81.699982"/>
      </g>
     </g>
    </g>
    <g id="ytick_2">
     <g id="line2d_9">
      <g>
       <use xlink:href="#m6cacf2490b" x="57.838979" y="217.647814" style="fill: #5a5758; stroke: #5a5758; stroke-width: 0.8"/>
      </g>
     </g>
     <g id="text_10">
      <!-- 0.4 -->
      <g style="fill: #5a5758" transform="translate(30.716563 222.858229) scale(0.14994 -0.14994)">
       <defs>
        <path id="CMUBright-Roman-34" d="M 186 1158 
L 186 1504 
L 1952 4250 
L 2438 4250 
L 2438 1498 
L 3168 1498 
L 3168 1158 
L 2438 1158 
L 2438 0 
L 2035 0 
L 2035 1158 
L 186 1158 
z
M 602 1498 
L 2054 1498 
L 2054 3885 
Q 1971 3667 1606 3085 
L 602 1498 
z
" transform="scale(0.015625)"/>
       </defs>
       <use xlink:href="#CMUBright-Roman-30"/>
       <use xlink:href="#CMUBright-Roman-2e" x="52.499985"/>
       <use xlink:href="#CMUBright-Roman-34" x="81.699982"/>
      </g>
     </g>
    </g>
    <g id="ytick_3">
     <g id="line2d_10">
      <g>
       <use xlink:href="#m6cacf2490b" x="57.838979" y="180.79289" style="fill: #5a5758; stroke: #5a5758; stroke-width: 0.8"/>
      </g>
     </g>
     <g id="text_11">
      <!-- 0.6 -->
      <g style="fill: #5a5758" transform="translate(30.716563 186.003305) scale(0.14994 -0.14994)">
       <defs>
        <path id="CMUBright-Roman-36" d="M 346 2061 
Q 346 3072 864 3686 
Q 1382 4301 2074 4301 
L 2086 4301 
Q 2426 4301 2797 4179 
L 2797 3846 
Q 2374 3981 2074 3981 
L 2061 3981 
Q 1478 3981 1123 3491 
Q 768 3002 768 2208 
Q 768 2195 771 2166 
Q 774 2138 774 2125 
Q 928 2445 1238 2665 
Q 1549 2886 1952 2886 
Q 2387 2886 2682 2483 
Q 3008 2029 3008 1408 
Q 3008 768 2618 326 
Q 2240 -109 1690 -109 
Q 1510 -109 1340 -57 
Q 1171 -6 985 141 
Q 800 288 662 521 
Q 525 755 435 1152 
Q 346 1549 346 2061 
z
M 794 1389 
Q 813 1171 854 1004 
Q 896 838 985 643 
Q 1075 448 1254 336 
Q 1434 224 1690 224 
Q 2138 224 2381 550 
Q 2515 736 2550 921 
Q 2586 1107 2586 1434 
Q 2586 1645 2573 1776 
Q 2560 1907 2480 2089 
Q 2400 2272 2253 2400 
Q 2054 2566 1728 2566 
Q 1325 2566 1062 2265 
Q 800 1965 800 1555 
Q 800 1440 806 1389 
L 794 1389 
z
" transform="scale(0.015625)"/>
       </defs>
       <use xlink:href="#CMUBright-Roman-30"/>
       <use xlink:href="#CMUBright-Roman-2e" x="52.499985"/>
       <use xlink:href="#CMUBright-Roman-36" x="81.699982"/>
      </g>
     </g>
    </g>
    <g id="ytick_4">
     <g id="line2d_11">
      <g>
       <use xlink:href="#m6cacf2490b" x="57.838979" y="143.937966" style="fill: #5a5758; stroke: #5a5758; stroke-width: 0.8"/>
      </g>
     </g>
     <g id="text_12">
      <!-- 0.8 -->
      <g style="fill: #5a5758" transform="translate(30.716563 149.148381) scale(0.14994 -0.14994)">
       <defs>
        <path id="CMUBright-Roman-38" d="M 275 1158 
Q 275 1517 518 1817 
Q 762 2118 1248 2266 
Q 909 2349 640 2598 
Q 371 2848 371 3206 
Q 371 3642 745 3971 
Q 1120 4301 1677 4301 
Q 2221 4301 2601 3981 
Q 2982 3661 2982 3213 
Q 2982 2918 2787 2684 
Q 2592 2451 2285 2323 
L 2099 2266 
Q 2464 2176 2768 1885 
Q 3072 1594 3072 1158 
Q 3072 646 2665 268 
Q 2259 -109 1670 -109 
Q 1075 -109 675 275 
Q 275 659 275 1158 
z
M 698 1158 
Q 698 704 970 464 
Q 1242 224 1670 224 
Q 2118 224 2384 470 
Q 2650 717 2650 1165 
Q 2650 1619 2371 1862 
Q 2093 2106 1670 2106 
Q 1280 2106 989 1878 
Q 698 1651 698 1158 
z
M 755 3206 
Q 755 2886 982 2656 
Q 1210 2426 1670 2426 
Q 2093 2426 2342 2634 
Q 2592 2842 2592 3206 
Q 2592 3507 2387 3744 
Q 2182 3981 1683 3981 
Q 1171 3981 963 3744 
Q 755 3507 755 3206 
z
" transform="scale(0.015625)"/>
       </defs>
       <use xlink:href="#CMUBright-Roman-30"/>
       <use xlink:href="#CMUBright-Roman-2e" x="52.499985"/>
       <use xlink:href="#CMUBright-Roman-38" x="81.699982"/>
      </g>
     </g>
    </g>
    <g id="ytick_5">
     <g id="line2d_12">
      <g>
       <use xlink:href="#m6cacf2490b" x="57.838979" y="107.083042" style="fill: #5a5758; stroke: #5a5758; stroke-width: 0.8"/>
      </g>
     </g>
     <g id="text_13">
      <!-- 1.0 -->
      <g style="fill: #5a5758" transform="translate(30.716563 112.293457) scale(0.14994 -0.14994)">
       <use xlink:href="#CMUBright-Roman-31"/>
       <use xlink:href="#CMUBright-Roman-2e" x="52.499985"/>
       <use xlink:href="#CMUBright-Roman-30" x="81.699982"/>
      </g>
     </g>
    </g>
    <g id="ytick_6">
     <g id="line2d_13">
      <g>
       <use xlink:href="#m6cacf2490b" x="57.838979" y="70.228118" style="fill: #5a5758; stroke: #5a5758; stroke-width: 0.8"/>
      </g>
     </g>
     <g id="text_14">
      <!-- 1.2 -->
      <g style="fill: #5a5758" transform="translate(30.716563 75.438533) scale(0.14994 -0.14994)">
       <use xlink:href="#CMUBright-Roman-31"/>
       <use xlink:href="#CMUBright-Roman-2e" x="52.499985"/>
       <use xlink:href="#CMUBright-Roman-32" x="81.699982"/>
      </g>
     </g>
    </g>
    <g id="ytick_7">
     <g id="line2d_14">
      <g>
       <use xlink:href="#m6cacf2490b" x="57.838979" y="33.373195" style="fill: #5a5758; stroke: #5a5758; stroke-width: 0.8"/>
      </g>
     </g>
     <g id="text_15">
      <!-- 1.4 -->
      <g style="fill: #5a5758" transform="translate(30.716563 38.58361) scale(0.14994 -0.14994)">
       <use xlink:href="#CMUBright-Roman-31"/>
       <use xlink:href="#CMUBright-Roman-2e" x="52.499985"/>
       <use xlink:href="#CMUBright-Roman-34" x="81.699982"/>
      </g>
     </g>
    </g>
    <g id="text_16">
     <!-- $\sigma$ -->
     <g style="fill: #5a5758" transform="translate(19.71 163.957971) rotate(-90) scale(0.18 -0.18)">
      <defs>
       <path id="CMUBright-SemiBold-3c3" d="M 275 1485 
Q 275 2067 646 2502 
Q 1018 2938 1581 3008 
Q 1677 3021 1875 3021 
L 3635 3021 
L 3635 2406 
L 2963 2406 
Q 3258 1978 3258 1491 
Q 3258 845 2816 397 
Q 2374 -51 1766 -51 
Q 1158 -51 716 390 
Q 275 832 275 1485 
z
M 896 1485 
Q 896 1114 1142 838 
Q 1389 563 1766 563 
Q 2118 563 2380 828 
Q 2643 1094 2643 1485 
Q 2643 1882 2380 2144 
Q 2118 2406 1766 2406 
Q 1414 2406 1155 2144 
Q 896 1882 896 1485 
z
" transform="scale(0.015625)"/>
      </defs>
      <use xlink:href="#CMUBright-SemiBold-3c3" transform="translate(0 0.796875)"/>
     </g>
    </g>
   </g>
   <g id="line2d_15">
    <path d="M 69.838979 291.349296 
L 73.0705 291.346335 
L 76.30202 291.342326 
L 79.533541 291.336899 
L 82.765062 291.329551 
L 85.996582 291.319603 
L 89.228103 291.306136 
L 92.459623 291.287905 
L 95.691144 291.263226 
L 98.922665 291.229824 
L 102.154185 291.184617 
L 105.385706 291.123445 
L 108.617226 291.040686 
L 111.848747 290.928752 
L 115.080268 290.777415 
L 118.311788 290.572908 
L 121.543309 290.29674 
L 124.77483 289.924142 
L 128.00635 289.42207 
L 131.237871 288.746664 
L 134.469391 287.840128 
L 137.700912 286.62704 
L 140.932433 285.010286 
L 144.163953 282.867115 
L 147.395474 280.046313 
L 150.626994 276.368272 
L 153.858515 271.630668 
L 157.090036 265.623309 
L 160.321556 258.155688 
L 163.553077 249.098711 
L 166.784598 238.436589 
L 170.016118 226.316396 
L 173.247639 213.074695 
L 176.479159 199.220352 
L 179.71068 185.366009 
L 182.942201 172.124308 
L 186.173721 160.004115 
L 189.405242 149.341993 
L 192.636762 140.285015 
L 195.868283 132.817395 
L 199.099804 126.810036 
L 202.331324 122.072432 
L 205.562845 118.394391 
L 208.794366 115.573589 
L 212.025886 113.430418 
L 215.257407 111.813664 
L 218.488927 110.600576 
L 221.720448 109.69404 
L 224.951969 109.018634 
L 228.183489 108.516562 
L 231.41501 108.143964 
L 234.64653 107.867796 
L 237.878051 107.663289 
L 241.109572 107.511952 
L 244.341092 107.400018 
L 247.572613 107.317258 
L 250.804134 107.256086 
L 254.035654 107.21088 
L 257.267175 107.177477 
L 260.498695 107.152799 
L 263.730216 107.134568 
L 266.961737 107.121101 
L 270.193257 107.111153 
L 273.424778 107.103805 
L 276.656298 107.098378 
L 279.887819 107.094369 
L 283.11934 107.091408 
L 286.35086 107.089221 
L 289.582381 107.087606 
L 292.813902 107.086413 
L 296.045422 107.085532 
L 299.276943 107.084881 
L 302.508463 107.0844 
L 305.739984 107.084045 
L 308.971505 107.083783 
L 312.203025 107.083589 
L 315.434546 107.083446 
L 318.666066 107.083341 
L 321.897587 107.083263 
L 325.129108 107.083205 
L 328.360628 107.083163 
L 331.592149 107.083131 
L 334.82367 107.083108 
L 338.05519 107.083091 
L 341.286711 107.083078 
L 344.518231 107.083069 
L 347.749752 107.083062 
L 350.981273 107.083057 
L 354.212793 107.083053 
L 357.444314 107.08305 
L 360.675834 107.083048 
L 363.907355 107.083047 
L 367.138876 107.083045 
L 370.370396 107.083045 
L 373.601917 107.083044 
L 376.833438 107.083044 
L 380.064958 107.083043 
L 383.296479 107.083043 
L 386.527999 107.083043 
L 389.75952 107.083043 
" style="fill: none; stroke: #e29400; stroke-width: 2; stroke-linecap: square"/>
   </g>
   <g id="line2d_16">
    <path d="M 69.838979 291.357591 
L 73.0705 291.357566 
L 76.30202 291.357532 
L 79.533541 291.357487 
L 82.765062 291.357425 
L 85.996582 291.357341 
L 89.228103 291.357227 
L 92.459623 291.357074 
L 95.691144 291.356866 
L 98.922665 291.356584 
L 102.154185 291.356203 
L 105.385706 291.355686 
L 108.617226 291.354987 
L 111.848747 291.354041 
L 115.080268 291.352759 
L 118.311788 291.351024 
L 121.543309 291.348675 
L 124.77483 291.345494 
L 128.00635 291.341187 
L 131.237871 291.335357 
L 134.469391 291.327463 
L 137.700912 291.316776 
L 140.932433 291.302307 
L 144.163953 291.282721 
L 147.395474 291.256207 
L 150.626994 291.220318 
L 153.858515 291.171743 
L 157.090036 291.106009 
L 160.321556 291.017066 
L 163.553077 290.896752 
L 166.784598 290.734052 
L 170.016118 290.514131 
L 173.247639 290.217037 
L 176.479159 289.816008 
L 179.71068 289.275265 
L 182.942201 288.547182 
L 186.173721 287.568761 
L 189.405242 286.257354 
L 192.636762 284.505772 
L 195.868283 282.177169 
L 199.099804 279.100596 
L 202.331324 275.068934 
L 205.562845 269.841986 
L 208.794366 263.158706 
L 212.025886 254.763232 
L 215.257407 244.448269 
L 218.488927 232.114833 
L 221.720448 217.838348 
L 224.951969 201.91984 
L 228.183489 184.894495 
L 231.41501 167.477554 
L 234.64653 150.45221 
L 237.878051 134.533701 
L 241.109572 120.257216 
L 244.341092 107.92378 
L 247.572613 97.608817 
L 250.804134 89.213343 
L 254.035654 82.530063 
L 257.267175 77.303115 
L 260.498695 73.271453 
L 263.730216 70.19488 
L 266.961737 67.866277 
L 270.193257 66.114695 
L 273.424778 64.803288 
L 276.656298 63.824867 
L 279.887819 63.096784 
L 283.11934 62.556041 
L 286.35086 62.155012 
L 289.582381 61.857918 
L 292.813902 61.637997 
L 296.045422 61.475297 
L 299.276943 61.354983 
L 302.508463 61.266041 
L 305.739984 61.200306 
L 308.971505 61.151731 
L 312.203025 61.115842 
L 315.434546 61.089328 
L 318.666066 61.069742 
L 321.897587 61.055273 
L 325.129108 61.044586 
L 328.360628 61.036692 
L 331.592149 61.030862 
L 334.82367 61.026555 
L 338.05519 61.023374 
L 341.286711 61.021025 
L 344.518231 61.01929 
L 347.749752 61.018008 
L 350.981273 61.017062 
L 354.212793 61.016363 
L 357.444314 61.015846 
L 360.675834 61.015465 
L 363.907355 61.015183 
L 367.138876 61.014975 
L 370.370396 61.014822 
L 373.601917 61.014708 
L 376.833438 61.014624 
L 380.064958 61.014562 
L 383.296479 61.014517 
L 386.527999 61.014483 
L 389.75952 61.014458 
" style="fill: none; stroke: #1e90ff; stroke-width: 2; stroke-linecap: square"/>
   </g>
   <g id="line2d_17">
    <path d="M 69.838979 291.357661 
L 73.0705 291.357661 
L 76.30202 291.35766 
L 79.533541 291.35766 
L 82.765062 291.35766 
L 85.996582 291.357659 
L 89.228103 291.357658 
L 92.459623 291.357657 
L 95.691144 291.357655 
L 98.922665 291.357653 
L 102.154185 291.35765 
L 105.385706 291.357646 
L 108.617226 291.35764 
L 111.848747 291.357632 
L 115.080268 291.357622 
L 118.311788 291.357608 
L 121.543309 291.357589 
L 124.77483 291.357563 
L 128.00635 291.357528 
L 131.237871 291.357481 
L 134.469391 291.357417 
L 137.700912 291.357331 
L 140.932433 291.357214 
L 144.163953 291.357055 
L 147.395474 291.356841 
L 150.626994 291.35655 
L 153.858515 291.356157 
L 157.090036 291.355625 
L 160.321556 291.354904 
L 163.553077 291.353927 
L 166.784598 291.352606 
L 170.016118 291.350816 
L 173.247639 291.348393 
L 176.479159 291.345113 
L 179.71068 291.340672 
L 182.942201 291.334659 
L 186.173721 291.326517 
L 189.405242 291.315495 
L 192.636762 291.300574 
L 195.868283 291.280373 
L 199.099804 291.253026 
L 202.331324 291.216009 
L 205.562845 291.165905 
L 208.794366 291.098095 
L 212.025886 291.006337 
L 215.257407 290.882198 
L 218.488927 290.714297 
L 221.720448 290.487292 
L 224.951969 290.180532 
L 228.183489 289.766279 
L 231.41501 289.207382 
L 234.64653 288.454274 
L 237.878051 287.441165 
L 241.109572 286.081361 
L 244.341092 284.261729 
L 247.572613 281.836599 
L 250.804134 278.621842 
L 254.035654 274.390638 
L 257.267175 268.873577 
L 260.498695 261.767171 
L 263.730216 252.756132 
L 266.961737 241.554702 
L 270.193257 227.969236 
L 273.424778 211.976053 
L 276.656298 193.795763 
L 279.887819 173.933212 
L 283.11934 153.151697 
L 286.35086 132.370183 
L 289.582381 112.507631 
L 292.813902 94.327342 
L 296.045422 78.334159 
L 299.276943 64.748692 
L 302.508463 53.547262 
L 305.739984 44.536223 
L 308.971505 37.429818 
L 312.203025 31.912756 
L 315.434546 27.681552 
L 318.666066 24.466796 
L 321.897587 22.041665 
L 325.129108 20.222033 
L 328.360628 18.86223 
L 331.592149 17.849121 
L 334.82367 17.096012 
L 338.05519 16.537115 
L 341.286711 16.122863 
L 344.518231 15.816102 
L 347.749752 15.589097 
L 350.981273 15.421196 
L 354.212793 15.297057 
L 357.444314 15.205299 
L 360.675834 15.137489 
L 363.907355 15.087385 
L 367.138876 15.050368 
L 370.370396 15.023022 
L 373.601917 15.002821 
L 376.833438 14.987899 
L 380.064958 14.976877 
L 383.296479 14.968736 
L 386.527999 14.962723 
L 389.75952 14.958281 
" style="fill: none; stroke: #e21a1a; stroke-width: 2; stroke-linecap: square"/>
   </g>
   <g id="patch_3">
    <path d="M 57.838979 291.357661 
L 57.838979 14.958281 
" style="fill: none; stroke: #5a5758; stroke-width: 0.8; stroke-linejoin: miter; stroke-linecap: square"/>
   </g>
   <g id="patch_4">
    <path d="M 69.838979 303.357661 
L 389.75952 303.357661 
" style="fill: none; stroke: #5a5758; stroke-width: 0.8; stroke-linejoin: miter; stroke-linecap: square"/>
   </g>
   <g id="text_17">
    <!-- $t_0=0.0$ -->
    <g style="fill: #e29400" transform="translate(395.75952 111.834761) scale(0.18 -0.18)">
     <defs>
      <path id="CMUBright-Roman-74" d="M 122 2701 
L 122 3021 
L 736 3021 
L 736 3885 
L 1126 3885 
L 1126 3021 
L 2118 3021 
L 2118 2701 
L 1126 2701 
L 1126 883 
Q 1126 282 1491 282 
Q 1568 282 1638 291 
Q 1709 301 1769 323 
Q 1830 346 1878 365 
Q 1926 384 1974 416 
Q 2022 448 2048 464 
Q 2074 480 2109 512 
Q 2144 544 2150 544 
L 2234 230 
Q 1779 -51 1261 -51 
Q 730 -51 730 838 
L 730 2701 
L 122 2701 
z
" transform="scale(0.015625)"/>
      <path id="CMUBright-Roman-3d" d="M 378 1062 
Q 378 1229 576 1229 
L 3533 1229 
Q 3725 1222 3725 1062 
Q 3725 909 3514 909 
L 589 909 
Q 378 909 378 1062 
z
M 378 2304 
Q 378 2470 582 2470 
L 3533 2470 
Q 3725 2464 3725 2304 
Q 3725 2150 3514 2150 
L 589 2150 
Q 378 2150 378 2304 
z
" transform="scale(0.015625)"/>
     </defs>
     <use xlink:href="#CMUBright-Roman-74" transform="translate(0 0.796875)"/>
     <use xlink:href="#CMUBright-Roman-30" transform="translate(38.726049 -13.364063) scale(0.7)"/>
     <use xlink:href="#CMUBright-Roman-3d" transform="translate(97.318616 0.796875)"/>
     <use xlink:href="#CMUBright-Roman-30" transform="translate(181.001035 0.796875)"/>
     <use xlink:href="#CMUBright-Roman-2e" transform="translate(233.50102 0.796875)"/>
     <use xlink:href="#CMUBright-Roman-30" transform="translate(262.701017 0.796875)"/>
    </g>
   </g>
   <g id="text_18">
    <!-- $t_0=5.0$ -->
    <g style="fill: #1e90ff" transform="translate(395.75952 65.766177) scale(0.18 -0.18)">
     <use xlink:href="#CMUBright-Roman-74" transform="translate(0 0.796875)"/>
     <use xlink:href="#CMUBright-Roman-30" transform="translate(38.726049 -13.364063) scale(0.7)"/>
     <use xlink:href="#CMUBright-Roman-3d" transform="translate(97.318616 0.796875)"/>
     <use xlink:href="#CMUBright-Roman-35" transform="translate(181.001035 0.796875)"/>
     <use xlink:href="#CMUBright-Roman-2e" transform="translate(233.50102 0.796875)"/>
     <use xlink:href="#CMUBright-Roman-30" transform="translate(262.701017 0.796875)"/>
    </g>
   </g>
   <g id="text_19">
    <!-- $t_0=10.0$ -->
    <g style="fill: #e21a1a" transform="translate(395.75952 19.71) scale(0.18 -0.18)">
     <use xlink:href="#CMUBright-Roman-74" transform="translate(0 0.796875)"/>
     <use xlink:href="#CMUBright-Roman-30" transform="translate(38.726049 -13.364063) scale(0.7)"/>
     <use xlink:href="#CMUBright-Roman-3d" transform="translate(97.318616 0.796875)"/>
     <use xlink:href="#CMUBright-Roman-31" transform="translate(181.001035 0.796875)"/>
     <use xlink:href="#CMUBright-Roman-30" transform="translate(233.50102 0.796875)"/>
     <use xlink:href="#CMUBright-Roman-2e" transform="translate(286.001004 0.796875)"/>
     <use xlink:href="#CMUBright-Roman-30" transform="translate(315.201001 0.796875)"/>
    </g>
   </g>
  </g>
 </g>
</svg>
